<?xml version="1.0" encoding="UTF-8" standalone="no"?>
<!-- Created with Inkscape (http://www.inkscape.org/) -->

<svg
   xmlns:dc="http://purl.org/dc/elements/1.1/"
   xmlns:cc="http://creativecommons.org/ns#"
   xmlns:rdf="http://www.w3.org/1999/02/22-rdf-syntax-ns#"
   xmlns:svg="http://www.w3.org/2000/svg"
   xmlns="http://www.w3.org/2000/svg"
   xmlns:sodipodi="http://sodipodi.sourceforge.net/DTD/sodipodi-0.dtd"
   xmlns:inkscape="http://www.inkscape.org/namespaces/inkscape"
   id="svg4136"
   version="1.1"
   inkscape:version="0.91 r13725"
   width="1600"
   height="1600"
   viewBox="0 0 1600 1600"
   sodipodi:docname="plane.svg">
  <metadata
     id="metadata4142">
    <rdf:RDF>
      <cc:Work
         rdf:about="">
        <dc:format>image/svg+xml</dc:format>
        <dc:type
           rdf:resource="http://purl.org/dc/dcmitype/StillImage" />
      </cc:Work>
    </rdf:RDF>
  </metadata>
  <defs
     id="defs4140" />
  <sodipodi:namedview
     pagecolor="#ffffff"
     bordercolor="#666666"
     borderopacity="1"
     objecttolerance="10"
     gridtolerance="10"
     guidetolerance="10"
     inkscape:pageopacity="0"
     inkscape:pageshadow="2"
     inkscape:window-width="1366"
     inkscape:window-height="746"
     id="namedview4138"
     showgrid="false"
     inkscape:zoom="0.5"
     inkscape:cx="809.89307"
     inkscape:cy="682.66615"
     inkscape:window-x="-8"
     inkscape:window-y="-8"
     inkscape:window-maximized="1"
     inkscape:current-layer="svg4136"
     showguides="true" />
  <path
     style="fill:#003366;fill-opacity:1;stroke:#003366;stroke-width:20;stroke-opacity:1;stroke-miterlimit:4;stroke-dasharray:none;stroke-linejoin:round;stroke-linecap:round"
     d="m 808.10758,1121.029 -42.85887,-31.2835 -12.75998,12.1301 c -33.71667,32.0523 -79.13762,38.028 -121.7704,16.0204 -41.09524,-21.2139 -61.9662,-65.4907 -46.83485,-99.358 l 4.81177,-10.7699 -39.98616,-1.6513 C 427.66415,1001.1179 358.05571,995.41231 291.62819,985.04491 170.16359,966.08735 108.9428,935.34323 91.675599,884.63127 72.079403,827.07954 79.993427,736.18064 111.56271,656.21067 c 23.10996,-58.54109 58.84457,-105.33024 99.61271,-130.428 27.8449,-17.14192 117.56775,-38.85004 200.49338,-48.5086 34.97485,-4.07364 139.67581,-4.05433 173.12192,0.0321 23.81044,2.90901 25.24931,2.80405 30.56583,-2.22983 11.07903,-10.48999 67.76511,-23.93403 142.38684,-33.76946 51.03711,-6.72685 141.61139,-9.79776 157.66304,-5.34547 13.27713,3.68275 24.84904,15.74437 30.09211,31.36559 8.699,25.91836 10.62341,83.14707 3.86242,114.8712 l -2.07449,9.7339 13.64626,0 c 34.92475,0 114.92667,-22.81106 171.95117,-49.02866 98.3825,-45.23253 166.6631,-109.21219 167.8351,-157.26372 0.2935,-12.00985 5.7669,-27.87992 10.5979,-30.72696 2.4376,-1.43652 209.4731,22.68011 211.385,24.62326 3.8765,3.93987 0.8514,19.04888 -8.746,43.67537 -30.3136,77.78656 -96.9422,321.8182 -121.6287,445.47434 -5.096,25.52634 -10.1401,59.26011 -11.209,74.96413 -1.8558,27.2556 -1.6707,28.99452 4.0729,38.28222 3.3094,5.35135 6.2911,12.35969 6.6258,15.57423 0.5404,5.18249 -0.4037,5.76299 -8.3296,5.12429 -25.9203,-2.0884 -233.8056,-3.47575 -282.3,-1.8837 l -56.2661,1.8471 40.9416,42.1982 c 22.5179,23.2092 47.9541,48.6348 56.5251,56.5012 14.8742,13.6521 15.3968,14.542 11.4931,19.5602 -7.4267,9.5462 -24.1634,15.9649 -45.3647,17.3976 -11.0124,0.7442 -68.8691,3.6847 -128.5699,6.5341 -59.70122,2.8497 -113.14475,5.7089 -118.76366,6.3541 -9.66885,1.1103 -12.51325,-0.5034 -53.07516,-30.1102 z m 179.50088,8.1779 c 120.84914,-5.9967 136.26164,-7.221 141.54644,-11.2437 3.3282,-2.5338 -2.4747,-9.6413 -37.5173,-45.953 -22.8001,-23.6256 -50.7577,-51.0753 -62.1279,-60.9989 -11.3702,-9.924 -40.10332,-35.06453 -63.85134,-55.86787 -23.74799,-20.80367 -79.82933,-69.11008 -124.62487,-107.34789 -44.79568,-38.23771 -84.06632,-72.61154 -87.26816,-76.38627 -5.77275,-6.80568 -6.10645,-6.86122 -39.87106,-6.63821 -29.96513,0.1981 -36.65373,1.09052 -55.75906,7.4408 -67.45894,22.42225 -104.06418,58.96704 -111.25429,111.07047 -3.50576,25.40442 -3.45115,25.47362 51.74363,65.55874 27.52079,19.98694 96.57169,70.47173 153.44657,112.18823 l 103.40873,75.8482 14.3448,-1.2689 c 7.88938,-0.6977 60.89222,-3.5784 117.78381,-6.4017 z m -295.28094,-78.8441 c 5.07466,-2.155 9.16831,-4.8536 9.09693,-5.9971 -0.0713,-1.1437 -8.73623,-8.3167 -19.25534,-15.9403 -16.56221,-12.0032 -19.68132,-13.3948 -23.27184,-10.3829 -5.71803,4.7969 -13.87249,24.2162 -12.11889,28.8605 3.74608,9.9214 26.29848,11.6343 45.54914,3.4598 z m -66.118,-62.62425 c -2.80945,-2.01258 -24.62354,-18.03338 -48.47571,-35.6019 l -43.36756,-31.94294 -2.09749,-12.7153 c -2.97999,-18.06458 1.86843,-46.31935 11.38696,-66.35902 23.78764,-50.08079 93.21559,-89.25484 164.2836,-92.69538 35.17875,-1.70308 47.53953,1.34754 59.89255,14.7814 4.98682,5.42316 46.42002,41.7355 92.07384,80.69407 45.6536,38.95862 101.21914,86.68439 123.47857,106.05756 l 40.47212,35.22386 172.1488,0 c 94.6818,0 172.1508,-0.43564 172.1532,-0.96829 0,-2.04312 -24.7535,-36.40133 -42.3299,-58.73293 C 1268.7178,852.91883 1191.5837,777.81944 1109.8376,715.1866 1045.9281,666.21969 962.53918,613.50364 936.91031,605.86697 c -7.51527,-2.23941 -16.10962,-6.5568 -19.09821,-9.59424 -9.70113,-9.85918 -67.67124,-35.7451 -125.63616,-56.10142 C 725.65898,516.8117 657.54731,501.21217 585.34462,492.801 c -41.99627,-4.89227 -143.02807,-4.1352 -186.4461,1.39712 -48.92806,6.23441 -46.8079,5.17702 -35.61873,17.76409 37.32398,41.98686 24.92059,93.57657 -29.16975,121.32652 -27.02523,13.86476 -51.34445,19.34013 -85.90082,19.34013 -35.04797,0 -59.51133,-5.61763 -86.32502,-19.82306 -8.71045,-4.6147 -16.51636,-8.72611 -17.34638,-9.13654 -2.54333,-1.25756 -21.76777,43.38819 -29.96507,69.58923 -13.08761,41.83183 -16.776987,66.71228 -16.921923,114.11676 -0.136774,44.67974 2.429813,62.2487 11.885033,81.36284 18.14207,36.67504 74.69266,62.77039 171.8761,79.31267 77.63649,13.215 200.3269,22.45775 306.48673,23.08882 38.02727,0.22606 42.78463,-0.1951 38.31083,-3.40103 z M 1055.6874,842.66393 c -16.151,-6.08162 -29.768,-22.22409 -29.768,-35.28868 0,-16.40162 19.4914,-31.14844 41.1697,-31.14844 13.4398,0 36.3514,10.59498 42.0602,19.44975 10.6818,16.56822 8.2226,32.11441 -6.7994,42.98542 -10.3646,7.50055 -32.361,9.3871 -46.6625,4.00195 z M 857.31264,793.64482 c -34.78114,-18.69255 -20.01991,-61.14197 21.54436,-61.95634 34.20229,-0.67012 58.74092,24.9689 45.66858,47.71681 -11.33556,19.72538 -44.09262,26.66524 -67.21294,14.23953 z M 448.0873,777.72473 c -14.03718,-5.0916 -21.75606,-10.92966 -26.32606,-19.91112 -8.69422,-17.0869 -4.36871,-31.84505 12.08864,-41.24544 21.25067,-12.13831 55.65042,-2.66774 68.57807,18.88019 6.06955,10.11677 6.25367,15.28391 0.94943,26.644 -7.64842,16.38065 -33.26197,23.62245 -55.29008,15.63237 z M 286.52006,763.51862 c -22.61889,-10.64298 -33.63781,-32.87559 -24.08191,-48.5895 6.73446,-11.07428 19.10155,-16.5734 37.27228,-16.5734 12.81892,0 16.84144,1.2792 27.96676,8.8936 35.14323,24.05275 23.57073,61.33608 -18.97541,61.13338 -6.58099,-0.0314 -16.56278,-2.22019 -22.18172,-4.86408 z M 1374.7514,880.05494 c 22.3283,-119.84069 90.6709,-372.1467 126.5118,-467.05391 4.0077,-10.61234 6.8839,-19.70451 6.3917,-20.20482 -1.2325,-1.25243 -172.0551,-21.39788 -181.9177,-21.45392 -7.8607,-0.0447 -7.9609,0.1221 -9.3352,15.52514 -5.8824,65.92742 -91.7782,138.91892 -221.5231,188.24275 -34.5268,13.12567 -72.8163,24.03841 -99.60819,28.3888 l -19.15544,3.11042 12.49138,7.58656 c 62.01135,37.66181 119.57335,78.39928 172.67765,122.20624 48.628,40.1144 141.7229,134.86389 176.2976,179.43104 l 26.7498,34.48039 1.9456,-17.60833 c 1.0699,-9.6846 4.8831,-33.37718 8.4741,-52.65036 z M 299.29035,630.72559 c 46.39453,-14.62135 70.23652,-37.24938 70.23652,-66.66019 0,-16.80113 -6.08334,-29.95561 -21.33372,-46.13131 -7.59806,-8.05905 -13.07887,-11.6604 -17.74574,-11.6604 -10.69233,0 -85.60403,20.162 -99.9176,26.89217 -20.69787,9.73204 -43.5606,28.97515 -61.50261,51.76559 -9.15243,11.62564 -16.25383,22.33692 -15.78084,23.80288 2.24394,6.95523 39.52858,22.68789 64.9711,27.41527 19.72216,3.66447 60.99648,0.90311 81.07289,-5.42401 z m 638.1561,-97.19701 c 0.17371,-43.95006 -3.62284,-62.58552 -15.37539,-75.48606 l -6.90234,-7.57643 -39.76336,-0.86606 c -61.55022,-1.34058 -165.84841,10.88046 -220.30522,25.8141 -19.09001,5.23503 -26.06881,10.09393 -14.4978,10.09393 10.64837,0 70.46037,13.63387 108.7257,24.7835 48.63153,14.1701 95.77212,32.05823 145.08374,55.05399 36.83834,17.1789 38.37139,17.65057 40.583,12.48595 1.26439,-2.95204 2.36747,-22.88838 2.45167,-44.30292 z"
     id="path4147"
     inkscape:connector-curvature="0" />
  <g
     inkscape:groupmode="layer"
     id="layer1"
     inkscape:label="Layer 1" />
  <path
     style="opacity:1;fill:#000000;fill-opacity:1;stroke:#000000;stroke-width:10;stroke-linecap:round;stroke-linejoin:round;stroke-miterlimit:4;stroke-dasharray:none;stroke-dashoffset:0;stroke-opacity:1"
     d="m 293.93418,764.94387 c -17.43064,-4.69343 -31.44382,-19.10046 -33.13012,-34.06126 -2.08116,-18.464 10.48158,-29.28881 35.68433,-30.74778 14.01326,-0.81121 16.47037,-0.38704 24.20074,4.17785 26.62599,15.72296 34.56201,40.94972 17.04142,54.17068 -11.7886,8.89562 -26.6249,11.08416 -43.79637,6.46051 z"
     id="path4173"
     inkscape:connector-curvature="0" />
  <path
     style="opacity:1;fill:#000000;fill-opacity:1;stroke:#000000;stroke-width:10;stroke-linecap:round;stroke-linejoin:round;stroke-miterlimit:4;stroke-dasharray:none;stroke-dashoffset:0;stroke-opacity:1"
     d="m 447.47453,776.58734 c -16.83523,-6.16831 -29.02668,-21.07102 -29.13754,-35.61742 -0.10005,-13.12992 14.59617,-26.02967 32.44125,-28.47561 19.19612,-2.63112 43.98814,9.87355 51.91218,26.18362 3.79814,7.81772 4.01943,9.77809 1.90167,16.84655 -6.05527,20.2107 -32.66327,30.02276 -57.11756,21.06286 z"
     id="path4175"
     inkscape:connector-curvature="0" />
  <path
     style="opacity:1;fill:#000000;fill-opacity:1;stroke:#000000;stroke-width:10;stroke-linecap:round;stroke-linejoin:round;stroke-miterlimit:4;stroke-dasharray:none;stroke-dashoffset:0;stroke-opacity:1"
     d="m 870.19419,797.08593 c -14.20327,-3.94934 -23.12528,-10.48651 -27.96946,-20.49325 -14.76566,-30.50178 27.83084,-55.88756 63.32143,-37.737 14.10229,7.21217 20.74691,16.09293 20.74691,27.72893 0,12.15588 -6.27978,20.26006 -21,27.10089 -11.0229,5.12259 -24.28467,6.40741 -35.09888,3.40043 z"
     id="path4177"
     inkscape:connector-curvature="0" />
  <path
     style="opacity:1;fill:#000000;fill-opacity:1;stroke:#000000;stroke-width:10;stroke-linecap:round;stroke-linejoin:round;stroke-miterlimit:4;stroke-dasharray:none;stroke-dashoffset:0;stroke-opacity:1"
     d="m 1048.7957,837.6761 c -18.6006,-10.66732 -26.5081,-29.47881 -17.9086,-42.60334 10.8498,-16.55895 35.7965,-22.03148 56.7344,-12.44579 18.6739,8.54917 26.6716,18.22606 26.6716,32.2715 0,17.83714 -15.3342,28.84792 -40.1315,28.81662 -12.8539,-0.0162 -16.2909,-0.83448 -25.3659,-6.03899 z"
     id="path4179"
     inkscape:connector-curvature="0" />
</svg>
